<svg viewBox="0 0 800 550" xmlns="http://www.w3.org/2000/svg">
  <style>
    .label { font-family: sans-serif; font-size: 14px; font-weight: bold; fill: #333; }
    .sub-label { font-family: sans-serif; font-size: 11px; fill: #666; }
    .code-label { font-family: monospace; font-size: 11px; fill: #c51a4a; }
    .box { stroke-width: 2; fill: #fff; rx: 8; }
    .esp-box { stroke: #e67e22; fill: #fdf2e9; }
    .core-box { stroke: #d35400; fill: #fae5d3; stroke-dasharray: 4,4; }
    .rpi-box { stroke: #c51a4a; fill: #f8e8ec; }
    .hw-box { stroke: #2ecc71; fill: #eafaf1; }
    .mutex-box { stroke: #34495e; fill: #ecf0f1; }
    .data-line { fill: none; stroke: #bdc3c7; stroke-width: 2; stroke-linecap: round; }
    marker { fill: #bdc3c7; }
  </style>

  <defs>
    <marker id="arrow" viewBox="0 0 10 10" refX="9" refY="5" markerWidth="6" markerHeight="6" orient="auto-start-reverse">
      <path d="M 0 0 L 10 5 L 0 10 z" />
    </marker>
  </defs>

  <rect width="800" height="550" fill="#fafafa" />

  <rect x="300" y="20" width="200" height="60" class="box rpi-box" />
  <text x="400" y="45" text-anchor="middle" class="label">Raspberry Pi 5</text>
  <text x="400" y="60" text-anchor="middle" class="sub-label">ROS 2 Navigation Stack</text>

  <rect x="150" y="140" width="500" height="230" class="box esp-box" />
  <text x="400" y="165" text-anchor="middle" class="label">XIAO ESP32-S3 (Echtzeit-Steuerung)</text>

  <rect x="170" y="180" width="200" height="170" class="box core-box" />
  <text x="270" y="205" text-anchor="middle" class="label">Core 0: micro-ROS</text>
  <text x="270" y="225" text-anchor="middle" class="sub-label">~20 Hz Loop</text>
  <text x="270" y="290" text-anchor="middle" class="code-label">Sub: /cmd_vel</text>
  <text x="270" y="310" text-anchor="middle" class="code-label">Pub: /odom, /imu</text>
  <text x="270" y="330" text-anchor="middle" class="sub-label">Inter-Core Watchdog</text>

  <rect x="430" y="180" width="200" height="170" class="box core-box" />
  <text x="530" y="205" text-anchor="middle" class="label">Core 1: Regelung</text>
  <text x="530" y="225" text-anchor="middle" class="sub-label">50 Hz Deterministic Task</text>
  <text x="530" y="290" text-anchor="middle" class="sub-label">PID-Regler (Kp, Ki, Kd)</text>
  <text x="530" y="310" text-anchor="middle" class="sub-label">Kinematik (Invers/Vorwärts)</text>
  <text x="530" y="330" text-anchor="middle" class="sub-label">EMA-Filter</text>

  <rect x="360" y="240" width="80" height="40" class="box mutex-box" />
  <text x="400" y="255" text-anchor="middle" class="sub-label" style="font-weight:bold">FreeRTOS</text>
  <text x="400" y="270" text-anchor="middle" class="sub-label">Mutex</text>

  <g transform="translate(100, 420)">
    <rect x="50" y="0" width="120" height="60" class="box hw-box" />
    <text x="110" y="25" text-anchor="middle" class="label">Sensorik</text>
    <text x="110" y="45" text-anchor="middle" class="sub-label">IMU &amp; Hall-Encoder</text>

    <rect x="430" y="0" width="120" height="60" class="box hw-box" />
    <text x="490" y="25" text-anchor="middle" class="label">Aktuatorik</text>
    <text x="490" y="45" text-anchor="middle" class="sub-label">Cytron MDD3A (PWM)</text>
  </g>

  <path d="M400 80 L400 140" class="data-line" marker-start="url(#arrow)" marker-end="url(#arrow)" />
  <text x="415" y="115" class="code-label" text-anchor="start">UART / USB-CDC (115200 Baud)</text>

  <path d="M360 260 L270 260" class="data-line" marker-start="url(#arrow)" marker-end="url(#arrow)" style="stroke-dasharray: 4,4;" />
  <path d="M440 260 L530 260" class="data-line" marker-start="url(#arrow)" marker-end="url(#arrow)" style="stroke-dasharray: 4,4;" />

  <path d="M210 420 L210 350" class="data-line" marker-end="url(#arrow)" />
  <text x="215" y="390" class="code-label" text-anchor="start">I2C (IMU)</text>

  <path d="M260 420 L260 395 L480 395 L480 350" class="data-line" marker-end="url(#arrow)" />
  <text x="370" y="385" class="code-label" text-anchor="middle">GPIO Interrupts</text>

  <path d="M590 350 L590 420" class="data-line" marker-end="url(#arrow)" />
  <text x="600" y="390" class="code-label" text-anchor="start">20 kHz PWM</text>
</svg>
