<svg viewBox="0 0 800 500" xmlns="http://www.w3.org/2000/svg">
  <defs>
    <style>
      .bg { fill: #0B131E; }
      .label { font-family: 'Fira Sans', sans-serif; font-size: 14px; font-weight: bold; fill: #00E5FF; }
      .sub-label { font-family: 'Fira Mono', monospace; font-size: 11px; fill: #517C96; }
      .box { stroke-width: 2; fill: #111D2B; rx: 8; }

      .pi-box { stroke: #00E5FF; }
      .hailo-box { stroke: #00FF66; }
      .esp-box { stroke: #FF2A40; }
      .sensor-box { stroke: #517C96; }
      .cloud-box { stroke: #E60000; stroke-dasharray: 5,5; }

      /* Statische gestrichelte Linien ersetzen die inkompatiblen Animationen */
      .data-line { fill: none; stroke: #517C96; stroke-width: 3; stroke-linecap: round; stroke-dasharray: 8,8; }
      .data-line-fast { fill: none; stroke: #00E5FF; stroke-width: 3; stroke-linecap: round; stroke-dasharray: 10,10; }
    </style>
  </defs>

  <rect width="800" height="500" class="bg" />

  <rect x="300" y="20" width="200" height="60" class="box cloud-box" />
  <text x="400" y="45" text-anchor="middle" class="label" style="fill:#E60000">Claude AI / Gemini API</text>
  <text x="400" y="65" text-anchor="middle" class="sub-label">Strategische Entscheidung</text>

  <rect x="300" y="180" width="200" height="120" class="box pi-box" />
  <text x="400" y="210" text-anchor="middle" class="label">Raspberry Pi 5</text>
  <text x="400" y="235" text-anchor="middle" class="label" style="fill:#00FF66">ROS 2 Humble</text>
  <text x="400" y="260" text-anchor="middle" class="sub-label">Nav2 | SLAM | TF2</text>

  <rect x="325" y="360" width="150" height="60" class="box hailo-box" />
  <text x="400" y="385" text-anchor="middle" class="label" style="fill:#00FF66">Hailo-8L Kit</text>
  <text x="400" y="405" text-anchor="middle" class="sub-label">YOLOv8 Inferenz</text>

  <g transform="translate(40, 100)">
    <rect x="0" y="0" width="160" height="280" class="box sensor-box" />
    <text x="80" y="30" text-anchor="middle" class="label" style="fill:#517C96">SENSORIK</text>

    <rect x="15" y="55" width="130" height="35" rx="4" fill="#0B131E" stroke="#517C96" stroke-width="1" />
    <text x="80" y="77" text-anchor="middle" class="sub-label">IMX296 Kamera</text>

    <rect x="15" y="110" width="130" height="35" rx="4" fill="#0B131E" stroke="#517C96" stroke-width="1" />
    <text x="80" y="132" text-anchor="middle" class="sub-label">RPLIDAR A1</text>

    <rect x="15" y="165" width="130" height="35" rx="4" fill="#0B131E" stroke="#517C96" stroke-width="1" />
    <text x="80" y="187" text-anchor="middle" class="sub-label">ReSpeaker v2.0</text>

    <rect x="15" y="220" width="130" height="35" rx="4" fill="#0B131E" stroke="#517C96" stroke-width="1" />
    <text x="80" y="242" text-anchor="middle" class="sub-label">Hall-Encoder &amp; IMU</text>
  </g>

  <g transform="translate(600, 100)">
    <rect x="0" y="0" width="160" height="280" class="box esp-box" />
    <text x="80" y="30" text-anchor="middle" class="label" style="fill:#FF2A40">AKTOREN</text>

    <rect x="15" y="55" width="130" height="45" rx="4" fill="#0B131E" stroke="#FF2A40" stroke-width="1" />
    <text x="80" y="73" text-anchor="middle" class="sub-label">ESP32 Drive</text>
    <text x="80" y="90" text-anchor="middle" class="sub-label" style="font-size:9px">(PID &amp; Motoren)</text>

    <rect x="15" y="125" width="130" height="45" rx="4" fill="#0B131E" stroke="#FF2A40" stroke-width="1" />
    <text x="80" y="143" text-anchor="middle" class="sub-label">ESP32 Sensor</text>
    <text x="80" y="160" text-anchor="middle" class="sub-label" style="font-size:9px">(Pan-Tilt Servos)</text>

    <rect x="15" y="195" width="130" height="45" rx="4" fill="#0B131E" stroke="#FF2A40" stroke-width="1" />
    <text x="80" y="213" text-anchor="middle" class="sub-label">PCM5102A</text>
    <text x="80" y="230" text-anchor="middle" class="sub-label" style="font-size:9px">(Audio-Feedback)</text>
  </g>

  <path d="M200 240 L300 240" class="data-line-fast" />

  <path d="M370 300 L370 360" class="data-line-fast" />
  <path d="M430 360 L430 300" class="data-line-fast" />

  <path d="M400 180 L400 80" class="data-line" />

  <path d="M500 240 L600 240" class="data-line-fast" />

  <text x="400" y="470" text-anchor="middle" class="sub-label">Datenfluss: Sensorik -> Edge-Verarbeitung (Nav/Hailo) -> Strategie (Cloud) -> Aktorik</text>
</svg>
