<svg xmlns="http://www.w3.org/2000/svg" viewBox="0 0 1200 800">
  <defs>
    <style>
      .bg { fill: #0B131E; }
      .box { fill: #111D2B; stroke: #517C96; stroke-width: 2; rx: 6; }
      .box-pi { stroke: #00FF66; }
      .box-esp { stroke: #00E5FF; }

      .title { font-family: 'Fira Sans', sans-serif; font-weight: bold; font-size: 16px; fill: #00E5FF; }
      .title-pi { fill: #00FF66; }
      .title-power { fill: #FF2A40; }
      .sub { font-family: 'Fira Mono', monospace; font-size: 12px; fill: #517C96; }

      /* Statische Linien fuer LaTeX/Inkscape Kompatibilitaet */
      .power-line { stroke: #FF2A40; fill: none; stroke-width: 3; }
      .usb-line { stroke: #00E5FF; fill: none; stroke-width: 3; stroke-dasharray: 8,6; }
      .pwm-line { stroke: #00FF66; fill: none; stroke-width: 2; stroke-dasharray: 4,4; }
      .i2c-line { stroke: #517C96; fill: none; stroke-width: 2; stroke-dasharray: 6,6; }
      .can-line { stroke: #FF2A40; fill: none; stroke-width: 3; stroke-dasharray: 10,5; }
    </style>
  </defs>

  <rect width="100%" height="100%" class="bg" />

  <g transform="translate(30, 30)">
    <rect width="260" height="150" class="box" />
    <text x="15" y="25" class="title">Legende (Physische Busse)</text>
    <line x1="15" y1="45" x2="45" y2="45" class="power-line" /> <text x="55" y="50" class="sub">DC Power (12V / 6V / 5V)</text>
    <line x1="15" y1="70" x2="45" y2="70" class="usb-line" /> <text x="55" y="75" class="sub">USB / PCIe / UART</text>
    <line x1="15" y1="95" x2="45" y2="95" class="i2c-line" /> <text x="55" y="100" class="sub">I2C / I2S Busse</text>
    <line x1="15" y1="120" x2="45" y2="120" class="pwm-line" /> <text x="55" y="125" class="sub">PWM / GPIO Interrupts</text>
  </g>

  <g transform="translate(400, 50)">
    <rect width="340" height="140" class="box box-pi" />
    <text x="20" y="30" class="title title-pi">Raspberry Pi 5 (Host)</text>
    <text x="20" y="55" class="sub">ROS 2 Humble (Docker)</text>
    <text x="20" y="75" class="sub">PCIe → Hailo-8L (Edge-KI)</text>
    <text x="20" y="95" class="sub">I2S → MAX98357A (Amp)</text>
    <text x="20" y="115" class="sub">USB → RPLIDAR &amp; ReSpeaker</text>
  </g>

  <g transform="translate(400, 260)">
    <rect width="340" height="140" class="box box-esp" />
    <text x="20" y="30" class="title">ESP32-S3 (Sensor-Knoten)</text>
    <text x="20" y="55" class="sub">I2C A → INA260 &amp; MPU6050</text>
    <text x="20" y="75" class="sub">I2C A → PCA9685 (Pan-Tilt)</text>
    <text x="20" y="95" class="sub">GPIO → HC-SR04 &amp; MH-B (Kante)</text>
    <text x="20" y="115" class="sub">TWAI (CAN) → Notstopp Senden</text>
  </g>

  <g transform="translate(400, 470)">
    <rect width="340" height="140" class="box box-esp" />
    <text x="20" y="30" class="title">ESP32-S3 (Drive-Knoten)</text>
    <text x="20" y="55" class="sub">PWM (20 kHz) → Cytron MDD3A</text>
    <text x="20" y="75" class="sub">Interrupts → Hall-Encoder</text>
    <text x="20" y="95" class="sub">PWM → LED (IRLZ24N)</text>
    <text x="20" y="115" class="sub">TWAI (CAN) → Notstopp Empfang</text>
  </g>

  <g transform="translate(820, 60)">
    <rect width="180" height="45" class="box"/>
    <text x="15" y="27" class="title">Hailo-8L (NPU)</text>
  </g>
  <g transform="translate(820, 120)">
    <rect width="180" height="45" class="box"/>
    <text x="15" y="27" class="title">MAX98357A (Audio)</text>
  </g>

  <g transform="translate(820, 250)">
    <rect width="180" height="45" class="box"/>
    <text x="15" y="27" class="title">PCA9685 (Servos)</text>
  </g>
  <g transform="translate(820, 310)">
    <rect width="180" height="45" class="box"/>
    <text x="15" y="27" class="title">INA260 (Monitor)</text>
  </g>
  <g transform="translate(820, 370)">
    <rect width="180" height="45" class="box"/>
    <text x="15" y="27" class="title">MPU6050 (IMU)</text>
  </g>

  <g transform="translate(820, 470)">
    <rect width="180" height="45" class="box"/>
    <text x="15" y="27" class="title">Cytron MDD3A</text>
  </g>
  <g transform="translate(820, 530)">
    <rect width="180" height="45" class="box"/>
    <text x="15" y="27" class="title">LED (IRLZ24N)</text>
  </g>

  <g transform="translate(50, 300)">
    <rect width="180" height="60" class="box" style="stroke:#FF2A40;"/>
    <text x="15" y="35" class="title title-power">12V Li-Ion Akku (3S)</text>
  </g>
  <g transform="translate(50, 90)">
    <rect width="180" height="50" class="box"/>
    <text x="15" y="30" class="title">5V IP68 Buck</text>
  </g>
  <g transform="translate(50, 410)">
    <rect width="180" height="50" class="box"/>
    <text x="15" y="30" class="title">6V Pololu Buck</text>
  </g>

  <line x1="740" y1="82" x2="820" y2="82" class="usb-line" />
  <line x1="740" y1="142" x2="820" y2="142" class="i2c-line" />

  <line x1="740" y1="272" x2="820" y2="272" class="i2c-line" />
  <line x1="740" y1="332" x2="820" y2="332" class="i2c-line" />
  <line x1="740" y1="392" x2="820" y2="392" class="i2c-line" />

  <line x1="740" y1="492" x2="820" y2="492" class="pwm-line" />
  <line x1="740" y1="552" x2="820" y2="552" class="pwm-line" />

  <line x1="480" y1="190" x2="480" y2="260" class="usb-line" />
  <text x="490" y="230" class="sub">UART (921k)</text>
  <line x1="520" y1="190" x2="520" y2="470" class="usb-line" />
  <text x="530" y="445" class="sub">UART (921k)</text>

  <line x1="650" y1="400" x2="650" y2="470" class="can-line" />
  <text x="660" y="440" class="sub" style="fill:#FF2A40; font-weight:bold;">CAN-Notstopp</text>

  <polyline points="230,330 270,330 270,115 230,115" class="power-line" />
  <polyline points="230,330 270,330 270,435 230,435" class="power-line" />
  <polyline points="270,330 270,650 910,650 910,515" class="power-line" />

  <line x1="230" y1="115" x2="400" y2="115" class="power-line" />
  <polyline points="230,435 910,435 910,295" class="power-line" />

</svg>
