<svg xmlns="http://www.w3.org/2000/svg" viewBox="0 0 600 730" width="100%" height="100%">
  <rect width="100%" height="100%" fill="#0B131E" rx="12"/>
  <rect x="20" y="20" width="560" height="690" fill="#111D2B" rx="8"/>

  <text x="50" y="70" font-family="monospace" font-size="20" font-weight="bold" fill="#00E5FF" letter-spacing="2">AMR DASHBOARD THEME</text>

  <g transform="translate(50, 110)">
    <rect width="70" height="70" fill="#0B131E" rx="8" stroke="#517C96" stroke-width="1"/>
    <text x="95" y="25" font-family="sans-serif" font-size="18" font-weight="bold" fill="#00E5FF">--bg-base</text>
    <text x="95" y="45" font-family="monospace" font-size="14" fill="#517C96">HEX: #0B131E | Hintergrund (Basis)</text>
    <text x="95" y="65" font-family="monospace" font-size="14" fill="#517C96">RGB: 11, 19, 30</text>
  </g>

  <g transform="translate(50, 210)">
    <rect width="70" height="70" fill="#111D2B" rx="8" stroke="#517C96" stroke-width="1"/>
    <text x="95" y="25" font-family="sans-serif" font-size="18" font-weight="bold" fill="#00E5FF">--bg-panel</text>
    <text x="95" y="45" font-family="monospace" font-size="14" fill="#517C96">HEX: #111D2B | Hintergrund (Panel)</text>
    <text x="95" y="65" font-family="monospace" font-size="14" fill="#517C96">RGB: 17, 29, 43</text>
  </g>

  <g transform="translate(50, 310)">
    <rect width="70" height="70" fill="#517C96" rx="8" stroke="#517C96" stroke-width="1"/>
    <text x="95" y="25" font-family="sans-serif" font-size="18" font-weight="bold" fill="#00E5FF">--text-secondary</text>
    <text x="95" y="45" font-family="monospace" font-size="14" fill="#517C96">HEX: #517C96 | Text (Label)</text>
    <text x="95" y="65" font-family="monospace" font-size="14" fill="#517C96">RGB: 81, 124, 150</text>
  </g>

  <g transform="translate(50, 410)">
    <rect width="70" height="70" fill="#00E5FF" rx="8"/>
    <text x="95" y="25" font-family="sans-serif" font-size="18" font-weight="bold" fill="#00E5FF">--accent-primary</text>
    <text x="95" y="45" font-family="monospace" font-size="14" fill="#517C96">HEX: #00E5FF | Akzent (Daten)</text>
    <text x="95" y="65" font-family="monospace" font-size="14" fill="#517C96">RGB: 0, 229, 255</text>
  </g>

  <g transform="translate(50, 510)">
    <rect width="70" height="70" fill="#00FF66" rx="8"/>
    <text x="95" y="25" font-family="sans-serif" font-size="18" font-weight="bold" fill="#00E5FF">--status-success</text>
    <text x="95" y="45" font-family="monospace" font-size="14" fill="#517C96">HEX: #00FF66 | Status (Aktiv)</text>
    <text x="95" y="65" font-family="monospace" font-size="14" fill="#517C96">RGB: 0, 255, 102</text>
  </g>

  <g transform="translate(50, 610)">
    <rect width="70" height="70" fill="#FF2A40" rx="8"/>
    <text x="95" y="25" font-family="sans-serif" font-size="18" font-weight="bold" fill="#00E5FF">--status-critical</text>
    <text x="95" y="45" font-family="monospace" font-size="14" fill="#517C96">HEX: #FF2A40 | Aktion (Kritisch)</text>
    <text x="95" y="65" font-family="monospace" font-size="14" fill="#517C96">RGB: 255, 42, 64</text>
  </g>
</svg>
